<?xml version="1.0" encoding="UTF-8"?>
<svg width="496px" height="472px" viewBox="0 0 496 472" version="1.1" xmlns="http://www.w3.org/2000/svg" xmlns:xlink="http://www.w3.org/1999/xlink">
    <!-- Generator: Sketch 54.1 (76490) - https://sketchapp.com -->
    <title>FWB_VERTI_NOIR</title>
    <desc>Created with Sketch.</desc>
    <g id="FWB_VERTI_NOIR" stroke="none" stroke-width="1" fill="none" fill-rule="evenodd">
        <path d="M117.301,0.255 C107.084,0.255 100.11,5.942 99.704,9.797 C99.277,14.058 101.995,18.221 105.675,21.078 C132.662,42.184 54.807,83.237 64.407,166.849 C71.214,225.98 139.283,306.637 153.316,306.637 C153.849,306.637 154.31,306.514 154.68,306.277 C165.522,299.255 122.773,221.793 112.982,196.234 C91.248,138.866 124.064,102.168 136.868,80.821 C153.678,52.739 157.783,26.16 144.651,13.334 C134.643,3.522 125.038,0.255 117.301,0.255" id="Fill-1" fill="#000000"></path>
        <path d="M313.411,23.633 C312.502,23.633 311.573,23.648 310.624,23.693 C211.468,28.148 196.948,149.755 196.707,193.812 C196.707,197.594 197.004,216.885 192.58,216.885 C191.685,216.885 190.594,216.086 189.255,214.194 C184.098,206.834 169.384,185.436 164.993,179.676 C163.729,178.037 162.012,177.213 160.335,177.213 C156.811,177.213 153.487,180.853 155.007,188.196 C155.774,191.923 165.611,233.464 179.75,250.558 C183.818,255.513 193.169,262.509 202.837,262.509 C212.243,262.509 221.959,255.892 227.42,234.334 C236.88,200.979 225.651,68.379 338.615,53.224 C347.546,52.015 350.985,41.413 345.736,35.168 C342.01,30.753 330.664,23.633 313.411,23.633" id="Fill-2" fill="#000000"></path>
        <path d="M373.904,142.56 C370.332,141.436 370.172,139.216 372.805,135.278 C377.316,128.546 395.752,87.923 373.034,66.6 C371.189,64.863 368.785,63.063 366.189,61.81 C362.013,59.809 356.76,61.936 356.835,68.962 C357.371,120.466 332.051,130.35 296.611,130.728 L292.4,130.728 L292.4,154.397 L323.779,156.566 L324.35,156.624 C358.256,159.288 378.666,181.692 378.666,207.51 C378.666,238.556 352.877,258.62 324.356,258.62 C314.893,258.62 305.187,256.663 297.346,251.754 C295.863,250.824 293.862,249.381 292.312,248.203 C292.312,252.217 292.342,298.716 292.342,298.716 C303.162,303.865 315.433,306.922 331.31,306.922 C376.951,306.922 434.033,273.285 434.033,214.481 C434.033,183.829 408.617,153.447 373.904,142.56" id="Fill-3" fill="#000000"></path>
        <path d="M30.491,441.997 L24.998,461.098 C24.781,461.86 24.63,462.545 24.549,463.144 C24.465,463.745 24.403,464.725 24.361,466.074 L24.118,466.074 C23.979,464.671 23.859,463.662 23.749,463.062 C23.637,462.463 23.468,461.808 23.235,461.098 L18.239,446.363 L13.256,461.135 C13.014,461.821 12.834,462.463 12.724,463.062 C12.614,463.662 12.489,464.671 12.355,466.074 L12.108,466.074 C12.066,464.71 12.011,463.733 11.936,463.144 C11.859,462.556 11.706,461.876 11.476,461.098 L5.984,441.997 L0.902,441.997 L9.713,471.074 L14.035,471.074 L17.66,459.456 C17.772,459.088 17.864,458.574 17.936,457.919 C18.015,457.263 18.073,456.465 18.114,455.525 L18.318,455.505 C18.359,456.443 18.417,457.243 18.495,457.902 C18.569,458.554 18.668,459.077 18.788,459.456 L22.436,471.074 L26.717,471.074 L35.569,441.997 L30.491,441.997 Z M56.176,458.267 C56.028,458.214 55.883,458.173 55.746,458.146 C55.609,458.119 55.449,458.105 55.254,458.105 L49.742,458.105 C49.568,458.105 49.421,458.115 49.303,458.135 C49.185,458.158 49.035,458.199 48.84,458.267 L48.697,458.065 C48.82,457.966 48.914,457.873 48.987,457.775 C49.052,457.681 49.115,457.551 49.17,457.386 L51.935,449.417 C52.058,449.075 52.157,448.593 52.23,447.971 C52.309,447.35 52.358,446.643 52.387,445.851 L52.611,445.851 C52.638,446.643 52.689,447.35 52.763,447.971 C52.841,448.593 52.94,449.075 53.062,449.417 L55.787,457.386 C55.842,457.551 55.907,457.681 55.982,457.775 C56.059,457.873 56.163,457.966 56.299,458.065 L56.176,458.267 Z M54.578,441.997 L50.419,441.997 L39.847,471.074 L44.642,471.074 L47.734,462.346 L57.302,462.346 L60.377,471.074 L65.15,471.074 L54.578,441.997 Z M79.419,466.587 C79.161,466.587 78.963,466.607 78.826,466.66 C78.686,466.706 78.551,466.79 78.417,466.916 L78.252,466.751 C78.374,466.612 78.462,466.482 78.509,466.363 C78.553,466.24 78.577,466.035 78.577,465.747 L78.577,441.958 L73.785,441.958 L73.785,471.074 L88.556,471.074 L89.277,466.587 L79.419,466.587 Z M103.629,466.587 C103.368,466.587 103.167,466.607 103.032,466.66 C102.898,466.706 102.764,466.79 102.624,466.916 L102.459,466.751 C102.586,466.612 102.668,466.482 102.716,466.363 C102.765,466.24 102.789,466.035 102.789,465.747 L102.789,441.958 L97.994,441.958 L97.994,471.074 L112.767,471.074 L113.484,466.587 L103.629,466.587 Z M141.485,464.148 C139.699,466.074 137.35,467.036 134.426,467.036 C131.503,467.036 129.15,466.074 127.367,464.148 C125.584,462.22 124.696,459.677 124.696,456.506 C124.696,453.352 125.593,450.808 127.389,448.875 C129.186,446.94 131.544,445.972 134.467,445.972 C137.333,445.972 139.668,446.954 141.465,448.915 C143.258,450.872 144.16,453.407 144.16,456.506 C144.16,459.677 143.267,462.22 141.485,464.148 L141.485,464.148 Z M144.899,445.658 C142.165,442.849 138.634,441.449 134.303,441.449 C130.109,441.449 126.658,442.866 123.945,445.711 C121.231,448.552 119.877,452.15 119.877,456.506 C119.877,460.918 121.237,464.538 123.955,467.355 C126.674,470.177 130.164,471.588 134.426,471.588 C138.671,471.588 142.165,470.177 144.899,467.355 C147.628,464.538 148.996,460.931 148.996,456.547 C148.996,452.092 147.628,448.463 144.899,445.658 L144.899,445.658 Z M182.526,441.997 L177.912,441.997 L177.912,459.865 C177.912,460.701 177.98,461.563 178.117,462.461 C178.254,463.354 178.479,464.435 178.793,465.707 L178.587,465.747 C178.206,464.643 177.837,463.704 177.475,462.941 C177.113,462.174 176.687,461.431 176.194,460.706 L163.35,441.997 L159.067,441.997 L159.067,471.074 L163.695,471.074 L163.695,453.17 C163.695,452.401 163.637,451.636 163.524,450.872 C163.408,450.108 163.169,448.938 162.813,447.366 L163.02,447.325 C163.483,448.637 163.859,449.599 164.159,450.217 C164.45,450.829 164.866,451.534 165.413,452.328 L178.237,471.074 L182.526,471.074 L182.526,441.997 Z M194.397,471.074 L199.174,471.074 L199.174,441.958 L194.397,441.958 L194.397,471.074 Z M216.542,466.587 C216.284,466.587 216.083,466.607 215.949,466.66 C215.808,466.706 215.673,466.79 215.518,466.916 L215.372,466.773 C215.487,466.617 215.569,466.472 215.62,466.331 C215.678,466.185 215.702,465.998 215.702,465.747 L215.702,459.333 C215.702,459.128 215.678,458.95 215.62,458.79 C215.569,458.634 215.487,458.48 215.372,458.329 L215.538,458.168 C215.688,458.288 215.825,458.371 215.949,458.412 C216.072,458.452 216.269,458.48 216.542,458.491 L226.357,458.491 L226.357,454.088 L216.542,454.088 C216.294,454.088 216.108,454.109 215.979,454.152 C215.851,454.189 215.695,454.282 215.518,454.418 L215.352,454.253 C215.494,454.046 215.584,453.874 215.63,453.74 C215.683,453.602 215.702,453.441 215.702,453.247 L215.702,447.325 C215.702,447.122 215.678,446.94 215.62,446.783 C215.569,446.63 215.487,446.465 215.372,446.3 L215.518,446.139 C215.722,446.274 215.896,446.363 216.04,446.416 C216.182,446.463 216.351,446.486 216.542,446.486 L227.77,446.486 L227.281,441.997 L211.033,441.997 L211.033,471.074 L227.238,471.074 L227.77,466.587 L216.542,466.587 Z M236.788,462.713 L246.845,462.713 L246.845,458.412 L236.788,458.412 L236.788,462.713 Z M270.796,465.717 C269.877,466.546 268.603,466.957 266.964,466.957 L263.087,466.957 C262.838,466.957 262.657,466.979 262.527,467.029 C262.411,467.075 262.261,467.167 262.08,467.302 L261.923,467.119 C262.069,466.926 262.162,466.779 262.192,466.671 C262.237,466.557 262.251,466.375 262.251,466.117 L262.251,458.617 C262.251,458.412 262.237,458.247 262.192,458.126 C262.162,458.003 262.069,457.828 261.923,457.613 L262.08,457.428 C262.261,457.563 262.411,457.656 262.527,457.705 C262.657,457.755 262.838,457.775 263.087,457.775 L266.796,457.775 C267.835,457.775 268.668,457.875 269.296,458.074 C269.925,458.272 270.475,458.617 270.939,459.107 C271.314,459.517 271.618,460.001 271.834,460.553 C272.053,461.108 272.162,461.677 272.162,462.264 C272.162,463.74 271.707,464.889 270.796,465.717 L270.796,465.717 Z M269.918,452.886 C269.19,453.591 268.148,453.945 266.796,453.945 L263.046,453.945 C262.797,453.945 262.616,453.967 262.493,454.015 C262.37,454.064 262.22,454.157 262.046,454.292 L261.882,454.13 C261.896,454.1 261.916,454.068 261.943,454.025 C262.148,453.713 262.251,453.407 262.251,453.103 L262.251,446.857 C262.237,446.664 262.203,446.505 262.158,446.374 C262.107,446.246 262.021,446.071 261.882,445.851 L262.046,445.69 C262.203,445.826 262.347,445.914 262.473,445.954 C262.596,445.998 262.787,446.013 263.046,446.013 L266.243,446.013 C267.923,446.013 269.139,446.328 269.894,446.951 C270.642,447.571 271.014,448.537 271.014,449.846 C271.014,451.172 270.652,452.188 269.918,452.886 L269.918,452.886 Z M275.119,457.929 C274.146,456.737 272.8,455.979 271.1,455.667 L271.1,455.421 C272.534,454.997 273.603,454.312 274.296,453.363 C274.993,452.412 275.345,451.167 275.345,449.623 C275.345,447.147 274.549,445.261 272.968,443.959 C271.376,442.649 269.04,441.997 265.953,441.997 L257.842,441.997 L257.842,471.074 L266.571,471.074 C269.713,471.074 272.162,470.268 273.924,468.644 C275.689,467.029 276.567,464.942 276.567,462.387 C276.567,460.612 276.086,459.123 275.119,457.929 L275.119,457.929 Z M298.421,453.363 C297.67,454.036 296.498,454.376 294.896,454.376 L292.069,454.376 C291.81,454.376 291.615,454.399 291.488,454.449 C291.355,454.495 291.219,454.582 291.064,454.705 L290.904,454.543 C291.064,454.365 291.178,454.198 291.239,454.046 C291.301,453.901 291.331,453.728 291.331,453.535 L291.331,446.876 C291.276,446.63 291.219,446.437 291.157,446.29 C291.096,446.15 291.014,446.003 290.904,445.851 L291.064,445.69 C291.242,445.826 291.393,445.914 291.52,445.954 C291.635,445.998 291.819,446.013 292.069,446.013 L294.896,446.013 C296.481,446.013 297.656,446.353 298.411,447.033 C299.169,447.706 299.545,448.753 299.545,450.176 C299.545,451.623 299.176,452.683 298.421,453.363 L298.421,453.363 Z M298.028,459.539 C297.759,459.145 297.424,458.771 297.024,458.421 C296.635,458.074 296.171,457.745 295.635,457.428 L295.717,457.285 C296.075,457.38 296.393,457.454 296.683,457.499 C296.97,457.551 297.243,457.572 297.503,457.572 C299.303,457.572 300.818,456.856 302.062,455.43 C303.291,454.005 303.916,452.253 303.916,450.176 C303.916,447.523 303.107,445.501 301.495,444.099 C299.887,442.702 297.526,441.997 294.429,441.997 L286.741,441.997 L286.741,471.074 L291.331,471.074 L291.331,460.825 C291.331,459.737 291.301,458.934 291.249,458.412 C291.191,457.891 291.089,457.291 290.945,456.609 L291.146,456.547 C291.376,457.162 291.615,457.691 291.854,458.135 C292.097,458.58 292.492,459.196 293.056,459.99 L300.508,471.074 L305.716,471.074 L298.028,459.539 Z M337.051,441.997 L332.273,441.997 L332.273,458.826 C332.273,461.609 331.717,463.689 330.596,465.061 C329.469,466.434 327.782,467.119 325.511,467.119 C323.247,467.119 321.553,466.434 320.433,465.061 C319.309,463.689 318.752,461.609 318.752,458.826 L318.752,441.997 L313.981,441.997 L313.981,458.35 C313.981,460.755 314.22,462.717 314.695,464.232 C315.17,465.747 315.911,467.024 316.911,468.062 C318.004,469.211 319.288,470.09 320.771,470.706 C322.256,471.318 323.834,471.628 325.511,471.628 C327.191,471.628 328.775,471.318 330.258,470.706 C331.737,470.09 333.027,469.211 334.121,468.062 C335.114,467.024 335.853,465.747 336.334,464.232 C336.815,462.717 337.051,460.755 337.051,458.35 L337.051,441.997 Z M359.725,456.937 C359.592,456.679 359.476,456.509 359.387,456.433 C359.301,456.363 359.175,456.299 359.031,456.26 L359.031,456.096 C359.175,456.057 359.301,456 359.387,455.924 C359.476,455.849 359.592,455.681 359.725,455.421 L367.364,441.997 L362.115,441.997 L357.761,450.176 C357.402,450.829 357.167,451.367 357.044,451.775 C356.917,452.184 356.822,452.84 356.754,453.74 L356.545,453.74 C356.48,452.891 356.381,452.255 356.251,451.824 C356.125,451.394 355.879,450.842 355.524,450.176 L351.163,441.997 L345.92,441.997 L353.516,455.421 C353.643,455.639 353.752,455.797 353.854,455.893 C353.956,455.989 354.086,456.057 354.236,456.096 L354.236,456.26 C354.086,456.299 353.956,456.37 353.854,456.465 C353.752,456.559 353.643,456.72 353.516,456.937 L345.63,471.074 L350.92,471.074 L355.524,462.22 C355.938,461.431 356.197,460.823 356.31,460.4 C356.429,459.974 356.504,459.394 356.545,458.658 L356.754,458.658 C356.822,459.492 356.914,460.115 357.033,460.533 C357.146,460.948 357.389,461.513 357.761,462.22 L362.371,471.074 L367.655,471.074 L359.725,456.937 Z M382.197,466.587 C381.938,466.587 381.742,466.607 381.603,466.66 C381.463,466.706 381.319,466.79 381.169,466.916 L381.032,466.773 C381.139,466.617 381.22,466.472 381.274,466.331 C381.329,466.185 381.356,465.998 381.356,465.747 L381.356,459.333 C381.356,459.128 381.329,458.95 381.274,458.79 C381.22,458.634 381.139,458.48 381.032,458.329 L381.196,458.168 C381.343,458.288 381.477,458.371 381.603,458.412 C381.729,458.452 381.92,458.48 382.197,458.491 L392.013,458.491 L392.013,454.088 L382.197,454.088 C381.947,454.088 381.764,454.109 381.634,454.152 C381.504,454.189 381.354,454.282 381.169,454.418 L381.012,454.253 C381.148,454.046 381.237,453.874 381.288,453.74 C381.329,453.602 381.356,453.441 381.356,453.247 L381.356,447.325 C381.356,447.122 381.329,446.94 381.274,446.783 C381.22,446.63 381.139,446.465 381.032,446.3 L381.169,446.139 C381.377,446.274 381.552,446.363 381.691,446.416 C381.842,446.463 382.006,446.486 382.197,446.486 L393.423,446.486 L392.931,441.997 L376.688,441.997 L376.688,471.074 L392.89,471.074 L393.423,466.587 L382.197,466.587 Z M409.43,466.587 C409.17,466.587 408.966,466.607 408.836,466.66 C408.699,466.706 408.563,466.79 408.423,466.916 L408.262,466.751 C408.385,466.612 408.471,466.482 408.512,466.363 C408.563,466.24 408.59,466.035 408.59,465.747 L408.59,441.958 L403.795,441.958 L403.795,471.074 L418.569,471.074 L419.286,466.587 L409.43,466.587 Z M433.634,466.587 C433.378,466.587 433.18,466.607 433.039,466.66 C432.906,466.706 432.773,466.79 432.63,466.916 L432.462,466.751 C432.589,466.612 432.678,466.482 432.726,466.363 C432.773,466.24 432.797,466.035 432.797,465.747 L432.797,441.958 L427.999,441.958 L427.999,471.074 L442.772,471.074 L443.49,466.587 L433.634,466.587 Z M457.66,466.587 C457.403,466.587 457.199,466.607 457.069,466.66 C456.929,466.706 456.782,466.79 456.635,466.916 L456.499,466.773 C456.604,466.617 456.684,466.472 456.741,466.331 C456.792,466.185 456.819,465.998 456.819,465.747 L456.819,459.333 C456.819,459.128 456.792,458.95 456.741,458.79 C456.684,458.634 456.604,458.48 456.499,458.329 L456.656,458.168 C456.81,458.288 456.942,458.371 457.069,458.412 C457.186,458.452 457.387,458.48 457.66,458.491 L467.472,458.491 L467.472,454.088 L457.66,454.088 C457.414,454.088 457.227,454.109 457.097,454.152 C456.97,454.189 456.813,454.282 456.635,454.418 L456.479,454.253 C456.611,454.046 456.703,453.874 456.744,453.74 C456.792,453.602 456.819,453.441 456.819,453.247 L456.819,447.325 C456.819,447.122 456.792,446.94 456.741,446.783 C456.684,446.63 456.604,446.465 456.499,446.3 L456.635,446.139 C456.84,446.274 457.018,446.363 457.165,446.416 C457.298,446.463 457.472,446.486 457.66,446.486 L468.893,446.486 L468.397,441.997 L452.154,441.997 L452.154,471.074 L468.356,471.074 L468.893,466.587 L457.66,466.587 Z M494.22,458.051 C493.117,456.684 490.999,455.159 487.837,453.496 L487.137,453.103 C485.477,452.244 484.36,451.518 483.79,450.933 C483.227,450.345 482.939,449.618 482.939,448.74 C482.939,447.674 483.254,446.871 483.875,446.333 C484.497,445.795 485.429,445.523 486.672,445.523 C487.689,445.523 488.595,445.711 489.374,446.089 C490.152,446.463 490.894,447.074 491.587,447.922 L494.804,444.886 L494.476,444.562 C493.469,443.55 492.294,442.781 490.965,442.248 C489.633,441.715 488.199,441.449 486.672,441.449 C484.128,441.449 482.12,442.111 480.634,443.443 C479.158,444.775 478.411,446.588 478.411,448.885 C478.411,449.826 478.541,450.68 478.804,451.449 C479.063,452.213 479.456,452.909 479.988,453.535 C480.563,454.203 481.334,454.882 482.308,455.564 C483.277,456.245 484.507,456.981 485.989,457.775 L486.71,458.146 C488.567,459.128 489.79,460.01 490.388,460.789 C490.985,461.568 491.279,462.463 491.279,463.473 C491.279,464.716 490.887,465.699 490.098,466.424 C489.315,467.145 488.247,467.512 486.877,467.512 C485.74,467.512 484.695,467.251 483.731,466.733 C482.782,466.216 481.717,465.323 480.542,464.066 L477.383,467.302 L477.693,467.594 C479.132,469.027 480.572,470.06 482.021,470.686 C483.465,471.313 485.111,471.628 486.959,471.628 C489.698,471.628 491.87,470.893 493.472,469.426 C495.07,467.962 495.869,465.944 495.869,463.39 C495.869,461.208 495.316,459.426 494.22,458.051 L494.22,458.051 Z" id="Fill-4" fill="#000000"></path>
        <path d="M31.37,370.156 L1.644,370.156 L1.644,422.949 L10.352,422.949 L10.352,401.629 C10.352,401.185 10.306,400.845 10.222,400.608 C10.133,400.371 9.982,400.093 9.757,399.769 L10.052,399.472 C10.374,399.719 10.65,399.888 10.873,399.974 C11.097,400.063 11.434,400.107 11.875,400.107 L29.547,400.107 L29.547,392.107 L11.727,392.107 C11.184,392.107 10.81,392.141 10.611,392.216 C10.416,392.294 10.165,392.442 9.869,392.664 L9.57,392.406 C9.893,392.029 10.102,391.719 10.202,391.475 C10.3,391.224 10.352,390.927 10.352,390.583 L10.352,379.901 C10.253,379.38 10.152,379.011 10.052,378.79 C9.956,378.564 9.794,378.329 9.57,378.081 L9.906,377.784 C10.227,378.031 10.499,378.192 10.724,378.267 C10.945,378.338 11.282,378.377 11.727,378.377 L32.748,378.377 L31.37,370.156 Z M58.659,414.801 C58.19,414.801 57.83,414.842 57.582,414.929 C57.334,415.018 57.071,415.172 56.801,415.394 L56.539,415.136 C56.74,414.861 56.89,414.596 56.986,414.337 C57.085,414.072 57.136,413.72 57.136,413.276 L57.136,401.629 C57.136,401.261 57.085,400.928 56.986,400.642 C56.89,400.36 56.74,400.084 56.539,399.806 L56.839,399.507 C57.112,399.732 57.36,399.885 57.582,399.957 C57.806,400.031 58.167,400.084 58.659,400.107 L76.48,400.107 L76.48,392.107 L58.659,392.107 C58.215,392.107 57.877,392.141 57.638,392.216 C57.402,392.294 57.124,392.452 56.801,392.703 L56.502,392.406 C56.75,392.029 56.921,391.719 57.005,391.475 C57.093,391.224 57.136,390.927 57.136,390.583 L57.136,379.828 C57.136,379.457 57.085,379.128 56.986,378.84 C56.89,378.559 56.74,378.267 56.539,377.969 L56.801,377.671 C57.17,377.922 57.491,378.086 57.751,378.174 C58.01,378.26 58.314,378.302 58.659,378.302 L79.048,378.302 L78.155,370.156 L48.656,370.156 L48.656,422.949 L78.085,422.949 L79.048,414.801 L58.659,414.801 Z M60.632,353.899 L56.986,364.128 L63.384,364.128 L70.232,353.899 L60.632,353.899 Z M125.479,409.834 C121.853,413.294 117.251,415.023 111.674,415.023 L107.507,415.023 C107.009,415.023 106.65,415.057 106.428,415.136 C106.205,415.208 105.96,415.37 105.684,415.616 L105.349,415.319 C105.619,415.047 105.794,414.801 105.872,414.576 C105.943,414.354 105.981,413.994 105.981,413.499 L105.981,379.602 C105.981,379.233 105.938,378.924 105.849,378.673 C105.766,378.427 105.595,378.13 105.349,377.784 L105.684,377.449 C106.006,377.697 106.281,377.864 106.503,377.953 C106.727,378.037 107.062,378.081 107.507,378.081 L112.081,378.081 C117.487,378.081 121.978,379.823 125.553,383.309 C129.123,386.793 130.907,391.214 130.907,396.567 C130.907,401.952 129.095,406.375 125.479,409.834 L125.479,409.834 Z M131.541,377.594 C126.279,372.635 119.611,370.156 111.523,370.156 L97.349,370.156 L97.349,422.949 L111.223,422.949 C119.583,422.949 126.373,420.457 131.599,415.469 C136.817,410.484 139.428,404.185 139.428,396.567 C139.428,388.881 136.798,382.556 131.541,377.594 L131.541,377.594 Z M166.987,414.801 C166.516,414.801 166.157,414.842 165.906,414.929 C165.655,415.018 165.399,415.172 165.122,415.394 L164.87,415.136 C165.061,414.861 165.211,414.596 165.31,414.337 C165.409,414.072 165.462,413.72 165.462,413.276 L165.462,401.629 C165.462,401.261 165.409,400.928 165.31,400.642 C165.211,400.36 165.061,400.084 164.87,399.806 L165.16,399.507 C165.43,399.732 165.686,399.885 165.906,399.957 C166.13,400.031 166.492,400.084 166.987,400.107 L184.808,400.107 L184.808,392.107 L166.987,392.107 C166.538,392.107 166.198,392.141 165.962,392.216 C165.724,392.294 165.447,392.452 165.122,392.703 L164.827,392.406 C165.075,392.029 165.242,391.719 165.327,391.475 C165.416,391.224 165.462,390.927 165.462,390.583 L165.462,379.828 C165.462,379.457 165.409,379.128 165.31,378.84 C165.211,378.559 165.061,378.267 164.87,377.969 L165.122,377.671 C165.498,377.922 165.812,378.086 166.072,378.174 C166.335,378.26 166.637,378.302 166.987,378.302 L187.376,378.302 L186.481,370.156 L156.977,370.156 L156.977,422.949 L186.403,422.949 L187.376,414.801 L166.987,414.801 Z M168.958,353.899 L165.31,364.128 L171.708,364.128 L178.556,353.899 L168.958,353.899 Z M226.803,390.786 C225.442,392.013 223.308,392.63 220.408,392.63 L215.275,392.63 C214.8,392.63 214.448,392.672 214.213,392.757 C213.977,392.843 213.728,392.997 213.451,393.218 L213.152,392.925 C213.451,392.604 213.654,392.305 213.769,392.029 C213.878,391.757 213.936,391.45 213.936,391.101 L213.936,379.011 C213.837,378.564 213.728,378.213 213.619,377.953 C213.508,377.69 213.352,377.423 213.152,377.15 L213.451,376.851 C213.774,377.095 214.045,377.263 214.271,377.337 C214.496,377.41 214.828,377.449 215.275,377.449 L220.408,377.449 C223.287,377.449 225.411,378.062 226.781,379.29 C228.167,380.517 228.851,382.419 228.851,384.999 C228.851,387.631 228.171,389.557 226.803,390.786 L226.803,390.786 Z M226.101,402 C225.604,401.284 224.998,400.608 224.277,399.974 C223.561,399.34 222.713,398.741 221.747,398.168 L221.894,397.91 C222.541,398.082 223.126,398.212 223.646,398.3 C224.163,398.386 224.664,398.432 225.135,398.432 C228.407,398.432 231.166,397.136 233.41,394.544 C235.654,391.954 236.777,388.769 236.777,384.999 C236.777,380.188 235.312,376.511 232.385,373.967 C229.462,371.429 225.186,370.156 219.556,370.156 L205.603,370.156 L205.603,422.949 L213.936,422.949 L213.936,404.344 C213.936,402.361 213.885,400.898 213.786,399.957 C213.685,399.011 213.502,397.922 213.226,396.682 L213.596,396.567 C214.02,397.686 214.448,398.649 214.879,399.454 C215.313,400.257 216.043,401.382 217.058,402.819 L230.603,422.949 L240.049,422.949 L226.101,402 Z M282.776,399.696 C282.5,399.596 282.24,399.523 281.994,399.472 C281.745,399.424 281.444,399.393 281.096,399.393 L271.093,399.393 C270.769,399.393 270.505,399.414 270.293,399.454 C270.082,399.488 269.805,399.571 269.453,399.696 L269.193,399.325 C269.416,399.148 269.59,398.975 269.717,398.802 C269.839,398.629 269.948,398.389 270.048,398.095 L275.075,383.622 C275.297,383.004 275.471,382.131 275.611,380.999 C275.748,379.872 275.84,378.591 275.888,377.15 L276.301,377.15 C276.349,378.591 276.441,379.872 276.574,380.999 C276.711,382.131 276.896,383.004 277.117,383.622 L282.065,398.095 C282.165,398.389 282.281,398.629 282.421,398.802 C282.554,398.975 282.749,399.148 282.995,399.325 L282.776,399.696 Z M279.873,370.156 L272.318,370.156 L253.118,422.949 L261.827,422.949 L267.445,407.1 L284.822,407.1 L290.398,422.949 L299.066,422.949 L279.873,370.156 Z M337.871,370.156 L306.625,370.156 L305.508,378.081 L316.443,378.081 C316.915,378.081 317.276,378.037 317.52,377.953 C317.769,377.864 318.018,377.707 318.264,377.483 L318.599,377.784 C318.322,378.179 318.154,378.496 318.076,378.731 C318.004,378.967 317.967,379.255 317.967,379.602 L317.967,422.949 L326.519,422.949 L326.519,379.602 C326.519,379.206 326.484,378.881 326.396,378.615 C326.307,378.361 326.153,378.069 325.931,377.745 L326.231,377.449 C326.546,377.697 326.822,377.864 327.048,377.953 C327.267,378.037 327.607,378.081 328.052,378.081 L339.025,378.081 L337.871,370.156 Z M354.827,422.943 L363.492,422.943 L363.492,370.079 L354.827,370.079 L354.827,422.943 Z M421.079,410.376 C417.838,413.871 413.565,415.616 408.262,415.616 C402.955,415.616 398.683,413.871 395.444,410.376 C392.21,406.878 390.585,402.251 390.585,396.501 C390.585,390.765 392.221,386.148 395.479,382.64 C398.744,379.128 403.026,377.372 408.334,377.372 C413.542,377.372 417.776,379.152 421.042,382.711 C424.3,386.27 425.929,390.869 425.929,396.501 C425.929,402.251 424.311,406.878 421.079,410.376 L421.079,410.376 Z M427.271,376.795 C422.315,371.701 415.901,369.152 408.036,369.152 C400.421,369.152 394.146,371.734 389.232,376.887 C384.304,382.047 381.852,388.588 381.852,396.501 C381.852,404.506 384.314,411.072 389.249,416.195 C394.185,421.319 400.52,423.879 408.262,423.879 C415.974,423.879 422.315,421.319 427.271,416.195 C432.23,411.072 434.717,404.534 434.717,396.567 C434.717,388.489 432.23,381.894 427.271,376.795 L427.271,376.795 Z M495.104,370.156 L486.737,370.156 L486.737,402.595 C486.737,404.11 486.86,405.675 487.105,407.306 C487.358,408.93 487.765,410.891 488.336,413.2 L487.956,413.276 C487.27,411.265 486.594,409.568 485.938,408.177 C485.279,406.789 484.5,405.437 483.608,404.122 L460.283,370.156 L452.51,370.156 L452.51,422.949 L460.914,422.949 L460.914,390.43 C460.914,389.046 460.809,387.657 460.594,386.265 C460.385,384.876 459.962,382.755 459.316,379.901 L459.686,379.828 C460.532,382.21 461.215,383.961 461.755,385.074 C462.287,386.19 463.049,387.469 464.043,388.905 L487.331,422.949 L495.104,422.949 L495.104,370.156 L495.104,370.156 Z" id="Fill-5" fill="#000000"></path>
    </g>
</svg>