<?xml version="1.0" encoding="iso-8859-1"?>
<!-- Generator: Adobe Illustrator 19.0.0, SVG Export Plug-In . SVG Version: 6.00 Build 0)  -->
<svg version="1.1" id="Layer_1" xmlns="http://www.w3.org/2000/svg" xmlns:xlink="http://www.w3.org/1999/xlink" x="0px" y="0px"
	 viewBox="0 0 512.097 512.097" style="enable-background:new 0 0 512.097 512.097;" xml:space="preserve">
<g>
	<g>
		<path d="M504.595,261.784l-0.017-2.534c-0.589-8.294-10.138-27.58-86.366-27.58h-0.128c-17.289,1.22-54.118-1.442-58.231-17.306
			c-0.632-2.458-2.33-4.506-4.634-5.589c-1.553-0.742-9.711-4.207-16.683-0.452c-0.137,0.068-0.282,0.154-0.418,0.23l-6.886-5.171
			c-0.154-0.401-0.435-0.922-0.631-1.365l-36.284,35.593c-1.664,1.63-3.823,2.441-5.982,2.441c-2.202,0-4.42-0.853-6.093-2.56
			c-3.294-3.362-3.243-8.764,0.119-12.066l36.54-35.84c-0.393-0.154-0.674-0.427-1.084-0.555c-3.243-1.041-7.97-1.408-13.559,1.442
			l-2.825-1.886l-38.144,37.376c-1.673,1.63-3.814,2.441-5.973,2.441c-2.219,0-4.429-0.853-6.093-2.56
			c-3.302-3.362-3.251-8.772,0.111-12.066l38.272-37.504c-2.944-1.306-7.134-2.202-12.612-0.614
			c-2.654-1.425-5.914-3.575-7.936-5.871l-38.281,37.495c-1.664,1.621-3.814,2.432-5.973,2.432c-2.219,0-4.429-0.853-6.101-2.56
			c-3.294-3.371-3.243-8.772,0.128-12.066l37.419-36.651c-2.62-0.367-5.914-0.051-9.634,2.048
			c-2.432-0.572-7.893-2.876-14.336-12.041c-9.719-13.798-32.708-24.491-47.753-17.613c-6.306,2.876-15.829,10.846-11.819,32.282
			c-4.787,5.103-19.354,16.486-52.838,13.355c-4.787-0.64-19.823-4.301-25.856-12.416c-8.934-12.023-34.492-18.159-49.741-11.955
			c-9.464,3.857-14.285,12.134-12.928,22.144c1.382,10.146,0.239,14.259-0.239,15.445c-0.751,0.503-1.425,1.126-1.997,1.86
			c-1.195,1.545-28.851,38.033-17.783,84.19c-3.806,3.482-8.977,9.617-10.368,18.313c-1.143,7.108,0.452,14.225,4.77,21.231
			c-3.84,6.579-8.474,18.039-3.686,29.969c6.639,16.58,27.699,26.453,64.367,30.157c2.295,0.222,4.642-0.486,6.409-2.014
			c2.022-1.724,10.76-7.834,17.178-6.195c3.499,0.905,6.451,4.471,8.755,10.607c1.408,3.738,5.265,5.965,9.131,5.47
			c2.27-0.316,56.115-7.723,92.732-24.567c11.426-4.198,26.778-6.059,30.208-2.27c7.228,7.936,38.144,26.974,64.239,26.974
			c3.115,0,6.153-0.273,9.079-0.862c10.078-2.031,17.63-7.663,22.127-16.384c3.541-0.137,7.501,1.101,9.549,7.1
			c0.768,2.227,2.415,4.045,4.557,5.009c13.815,6.246,42.633,11.145,56.627-12.672l4.514-1.51
			c6.238,4.011,18.679,10.317,31.317,7.04c6.042-1.57,14.234-6.025,19.925-18.142l7.868-5.239l5.965-0.384
			c0.973-0.06,1.929-0.29,2.825-0.674c1.254-0.538,30.711-13.431,39.953-40.252C514.229,292.333,512.573,277.323,504.595,261.784z
			 M493.254,300.798c-5.837,17.067-24.439,27.204-29.363,29.636l-6.648,0.427c-1.502,0.094-2.935,0.58-4.19,1.417l-11.844,7.893
			c-1.425,0.956-2.526,2.304-3.174,3.891c-3.652,9.003-8.038,10.163-9.481,10.547c-7.305,1.946-17.382-4.309-20.326-6.63
			c-2.261-1.818-5.291-2.347-8.03-1.442l-11.836,3.951c-2.202,0.734-4.002,2.33-5,4.42c-7.569,15.881-25.591,11.554-32.981,8.977
			c-7.39-15.181-23.27-16.495-32.845-13.329c-2.509,0.828-4.489,2.773-5.376,5.265c-2.014,5.734-5.53,8.815-11.401,10.001
			c-19.012,3.78-51.277-14.251-57.301-20.873c-13.09-14.387-42.889-4.412-49.357-2.014c-27.81,12.783-67.2,20.028-82.295,22.468
			c-5.316-9.668-12.271-13.38-17.562-14.737c-12.194-3.132-23.927,3.524-29.44,7.398c-35.618-4.105-44.681-13.662-46.899-19.098
			c-3.413-8.388,4.651-18.193,4.702-18.253c2.679-3.14,2.731-7.748,0.119-10.948c-3.866-4.719-5.521-9.062-4.941-12.911
			c0.444-2.935,2.091-5.385,3.678-7.134c0.213,0.094,0.393,0.162,0.614,0.256c4.574,2.074,8.892,3.891,12.988,5.478
			c0.316,0.119,0.623,0.247,0.939,0.367c3.994,1.527,7.757,2.85,11.281,3.977c0.444,0.145,0.879,0.282,1.323,0.418
			c3.234,1.007,6.263,1.869,9.079,2.577c0.64,0.162,1.254,0.316,1.877,0.469c2.466,0.589,4.77,1.092,6.878,1.485
			c0.759,0.145,1.442,0.265,2.15,0.384c1.809,0.307,3.49,0.563,4.992,0.751c0.708,0.085,1.306,0.154,1.946,0.213
			c1.306,0.137,2.517,0.247,3.541,0.307c0.478,0.026,0.828,0.034,1.237,0.051c0.947,0.034,1.783,0.051,2.389,0.051
			c0.213,0,0.273-0.009,0.435-0.009c0.563-0.017,0.981-0.034,1.118-0.043c82.978-10.061,121.737,4.651,122.436,4.924
			c6.844,2.398,13.5,4.574,20.045,6.63c2.116,0.666,4.173,1.254,6.255,1.886c4.437,1.34,8.823,2.62,13.124,3.797
			c2.27,0.631,4.514,1.229,6.741,1.809c4.156,1.092,8.235,2.091,12.254,3.038c2.014,0.478,4.053,0.973,6.033,1.417
			c5.06,1.126,10.01,2.133,14.865,3.046c0.768,0.145,1.579,0.324,2.338,0.469c5.487,0.998,10.803,1.835,16.026,2.577
			c1.86,0.273,3.661,0.478,5.495,0.708c3.43,0.444,6.827,0.845,10.138,1.186c1.954,0.196,3.883,0.367,5.803,0.538
			c3.174,0.265,6.289,0.478,9.361,0.657c1.732,0.102,3.49,0.213,5.188,0.29c3.763,0.154,7.433,0.239,11.034,0.265
			c0.725,0,1.51,0.051,2.236,0.051c0.111,0,0.205-0.009,0.324-0.009c4.693-0.009,9.207-0.145,13.619-0.358
			c1.382-0.068,2.714-0.162,4.062-0.247c3.251-0.205,6.426-0.461,9.515-0.768c1.203-0.119,2.423-0.222,3.61-0.358
			c4.011-0.461,7.91-0.981,11.648-1.587c0.7-0.12,1.348-0.256,2.039-0.375c3.123-0.538,6.144-1.126,9.071-1.758
			c1.109-0.239,2.185-0.478,3.26-0.734c2.714-0.623,5.333-1.289,7.876-1.988c0.725-0.196,1.476-0.375,2.185-0.58
			c3.132-0.896,6.118-1.835,8.994-2.816c0.768-0.256,1.485-0.529,2.236-0.794c2.176-0.777,4.284-1.562,6.306-2.364
			c0.794-0.316,1.587-0.631,2.355-0.947c2.372-0.981,4.659-1.98,6.81-2.987c0.171-0.077,0.358-0.154,0.521-0.23
			c2.313-1.092,4.454-2.193,6.519-3.285c0.631-0.333,1.22-0.666,1.826-0.998c1.502-0.828,2.935-1.647,4.301-2.458
			c0.503-0.299,1.007-0.589,1.485-0.879c1.715-1.058,3.336-2.091,4.821-3.089c0.324-0.222,0.597-0.418,0.905-0.631
			c1.186-0.819,2.304-1.613,3.345-2.381c0.418-0.307,0.811-0.606,1.195-0.905c0.956-0.717,1.835-1.408,2.645-2.074
			c0.23-0.188,0.486-0.384,0.708-0.563c0.973-0.811,1.826-1.544,2.594-2.236c0.239-0.222,0.435-0.401,0.666-0.606
			c0.521-0.486,0.998-0.93,1.408-1.331c0.188-0.171,0.358-0.333,0.521-0.495c0.469-0.469,0.879-0.887,1.169-1.195
			c1.05-0.862,2.133-1.903,3.217-3.046c0.435-0.469,0.879-1.007,1.323-1.51c0.64-0.734,1.28-1.442,1.92-2.236
			c0.529-0.657,1.041-1.348,1.562-2.039c0.546-0.717,1.092-1.425,1.63-2.159c0.529-0.742,1.032-1.468,1.544-2.219
			c0.316-0.461,0.657-0.913,0.964-1.374C495.515,289.329,495.165,295.234,493.254,300.798z"/>
	</g>
</g>
<g>
</g>
<g>
</g>
<g>
</g>
<g>
</g>
<g>
</g>
<g>
</g>
<g>
</g>
<g>
</g>
<g>
</g>
<g>
</g>
<g>
</g>
<g>
</g>
<g>
</g>
<g>
</g>
<g>
</g>
</svg>
